<?xml version="1.0" encoding="utf-8"?>
<!-- Generator: Adobe Illustrator 18.0.0, SVG Export Plug-In . SVG Version: 6.00 Build 0)  -->
<!DOCTYPE svg PUBLIC "-//W3C//DTD SVG 1.1//EN" "http://www.w3.org/Graphics/SVG/1.1/DTD/svg11.dtd">
<svg version="1.1" xmlns="http://www.w3.org/2000/svg" xmlns:xlink="http://www.w3.org/1999/xlink" x="0px" y="0px"
	 viewBox="0 0 134.2 66.7" enable-background="new 0 0 134.2 66.7" xml:space="preserve">
<g id="Layer_1">
	<g>
		<path d="M1.1,17c0-0.9,0.1-1.7,0.4-2.3c0.3-0.6,0.6-1.1,1.1-1.5c0.5-0.4,1-0.6,1.6-0.8c0.6-0.2,1.3-0.2,2-0.2c1.2,0,2.3,0.2,3,0.6
			c0.8,0.4,1.5,1,2,1.8h0.1v-12h6.9v33.6h-6.6v-2.5h-0.1c-0.3,0.6-0.7,1.1-1,1.5c-0.3,0.4-0.7,0.7-1.1,0.9c-0.4,0.2-0.8,0.3-1.3,0.4
			c-0.5,0.1-1,0.1-1.6,0.1c-1.1,0-1.9-0.1-2.6-0.3c-0.7-0.2-1.3-0.6-1.7-1.1c-0.4-0.5-0.7-1.2-0.9-2c-0.2-0.8-0.3-1.8-0.3-3V17z
			 M8.3,29.8c0,0.9,0.5,1.3,1.6,1.3c1.1,0,1.6-0.4,1.6-1.3V19c0-0.9-0.5-1.3-1.6-1.3c-1.1,0-1.6,0.4-1.6,1.3V29.8z"/>
		<path d="M19.9,12.5h6.9l2.1,19.6h0.1L31,12.5h6.9L34,42.7c-0.2,1.3-0.5,2.3-1,3.1c-0.4,0.8-1,1.4-1.6,1.8
			c-0.7,0.4-1.4,0.7-2.3,0.9c-0.9,0.1-1.8,0.2-2.8,0.2c-0.3,0-0.8,0-1.4-0.1c-0.6-0.1-1.2-0.3-1.7-0.5v-4.6c0.3,0.1,0.6,0.1,0.9,0.2
			c0.3,0.1,0.6,0.1,1,0.1c0.3,0,0.7,0,1-0.1c0.4-0.1,0.7-0.3,1-0.7c0.2-0.3,0.4-0.8,0.4-1.3c0-0.6,0.8-4.5,0.7-5.4h-5.2L19.9,12.5z"
			/>
		<path d="M39.5,12.5h6.9v2.6h0.1c0.5-1.1,1.1-1.8,2-2.3c0.8-0.5,1.8-0.7,2.9-0.7c0.7,0,1.4,0.1,2.1,0.3c0.7,0.2,1.2,0.5,1.7,0.9
			c0.5,0.4,0.9,1,1.1,1.7c0.3,0.7,0.4,1.6,0.4,2.6v18.6h-6.9v-17c0-0.5-0.1-0.9-0.4-1.2c-0.3-0.3-0.7-0.4-1.4-0.4
			c-0.6,0-1.1,0.1-1.3,0.4c-0.2,0.3-0.4,0.7-0.4,1.2v17h-6.9V12.5z"/>
		<path d="M59.2,16.4c0-0.9,0.1-1.6,0.4-2.1c0.3-0.5,0.8-1,1.4-1.3c0.6-0.3,1.4-0.5,2.4-0.6c1-0.1,2.1-0.2,3.4-0.2
			c1.5,0,2.8,0.1,3.9,0.2c1.1,0.2,2,0.5,2.7,0.9c0.7,0.5,1.2,1.1,1.6,2c0.3,0.9,0.5,2.1,0.5,3.5v17.4H69v-2h-0.1
			c-0.4,0.5-0.7,0.9-1,1.2c-0.3,0.3-0.7,0.6-1,0.7c-0.4,0.2-0.8,0.3-1.2,0.3c-0.5,0.1-1,0.1-1.7,0.1c-1.2,0-2.1-0.2-2.9-0.5
			c-0.7-0.3-1.3-0.8-1.7-1.5c-0.4-0.7-0.7-1.5-0.9-2.4c-0.2-1-0.2-2-0.2-3.3c0-1.5,0.1-2.6,0.4-3.6c0.3-0.9,0.7-1.7,1.2-2.2
			c0.5-0.5,1.1-0.9,1.9-1.1c0.7-0.2,1.6-0.3,2.5-0.3c0.8,0,1.6,0.1,2.4,0.4c0.8,0.2,1.5,0.6,2.1,1.2V18c0-0.8-0.6-1.2-1.8-1.2
			c-0.5,0-0.9,0.1-1.2,0.3c-0.3,0.2-0.4,0.5-0.4,0.9v1.3h-6V16.4z M65.3,29.4c0,0.8,0.2,1.3,0.4,1.6c0.2,0.3,0.7,0.4,1.3,0.4
			c0.7,0,1.2-0.2,1.4-0.5c0.2-0.3,0.3-0.7,0.3-1.2v-1.9c0-0.6-0.1-1.1-0.3-1.3c-0.2-0.3-0.7-0.4-1.3-0.4c-0.6,0-1,0.1-1.3,0.4
			c-0.3,0.3-0.4,0.8-0.4,1.6V29.4z"/>
		<path d="M77.1,12.5H84v2.6h0.1c0.5-1.1,1.2-1.8,2-2.3c0.8-0.5,1.9-0.7,3.1-0.7c1,0,2,0.2,2.9,0.6c1,0.4,1.7,1.2,2.3,2.4
			c0.5-1.1,1.2-1.8,2-2.3c0.8-0.5,1.8-0.7,3.1-0.7c0.7,0,1.3,0.1,2,0.3c0.6,0.2,1.2,0.5,1.6,0.9c0.5,0.4,0.8,1,1.1,1.7
			c0.3,0.7,0.4,1.6,0.4,2.6v18.6h-6.9v-17c0-0.5-0.1-0.9-0.4-1.2c-0.3-0.3-0.7-0.4-1.4-0.4c-0.6,0-1.1,0.1-1.3,0.4
			c-0.2,0.3-0.4,0.7-0.4,1.2v17h-6.9v-17c0-0.5-0.1-0.9-0.4-1.2c-0.3-0.3-0.7-0.4-1.4-0.4c-0.6,0-1.1,0.1-1.3,0.4
			c-0.2,0.3-0.4,0.7-0.4,1.2v17h-6.9V12.5z"/>
		<path d="M116.3,19.7c0-1.6,0.2-2.9,0.6-3.9c0.4-1,1-1.8,1.8-2.3c0.8-0.5,1.8-0.9,2.9-1.1c1.2-0.2,2.5-0.3,4.1-0.3
			c0.8,0,1.6,0.1,2.5,0.2c0.9,0.1,1.7,0.3,2.4,0.7c0.7,0.3,1.4,0.8,1.8,1.4c0.5,0.6,0.7,1.4,0.7,2.3v4h-6v-1.2
			c0-0.8-0.1-1.4-0.4-1.7c-0.3-0.3-0.8-0.5-1.4-0.5c-0.7,0-1.2,0.2-1.4,0.5c-0.3,0.3-0.4,0.9-0.4,1.7v9.7c0,0.8,0.1,1.4,0.4,1.7
			c0.3,0.3,0.8,0.5,1.4,0.5c0.7,0,1.2-0.2,1.4-0.5c0.3-0.3,0.4-0.9,0.4-1.7V27h6.3v2.1c0,1.3-0.1,2.4-0.2,3.4
			c-0.2,0.9-0.5,1.7-1,2.3c-0.5,0.6-1.3,1.1-2.4,1.4c-1.1,0.3-2.5,0.4-4.4,0.4c-1.5,0-2.8-0.1-3.9-0.3c-1.1-0.2-2.1-0.5-2.9-1.1
			c-0.8-0.5-1.4-1.3-1.7-2.3c-0.4-1-0.6-2.3-0.6-3.9V19.7z"/>
		<g>
			<path d="M107,12.5h6.9v23.7H107V12.5z"/>
			<circle cx="110.4" cy="5.7" r="4.3"/>
		</g>
	</g>
	<rect x="39.5" y="39" fill="#EE2A24" width="94" height="9.7"/>
	<g>
		<path fill="#FFFFFF" d="M43.6,47.1h-0.9v-6.5h2.4c0.8,0,1.3,0.2,1.7,0.6c0.4,0.4,0.5,0.8,0.5,1.3c0,0.6-0.2,1-0.6,1.4
			c-0.4,0.4-0.9,0.5-1.5,0.5h-1.6V47.1z M43.6,43.8h1.6c0.4,0,0.7-0.1,1-0.3s0.4-0.5,0.4-0.9c0-0.3-0.1-0.6-0.3-0.9
			s-0.5-0.4-0.9-0.4h-1.6V43.8z"/>
		<path fill="#FFFFFF" d="M56.8,47.1h-0.9l-1.3-2.8h-1.9v2.8h-0.8v-6.5h2.7c0.7,0,1.3,0.2,1.6,0.6c0.3,0.4,0.5,0.8,0.5,1.2
			c0,0.3-0.1,0.7-0.3,1c-0.2,0.3-0.5,0.5-1,0.7L56.8,47.1z M52.7,43.6h1.8c0.5,0,0.8-0.1,1-0.4c0.2-0.2,0.3-0.5,0.3-0.9
			s-0.1-0.6-0.4-0.8c-0.2-0.2-0.6-0.3-0.9-0.3h-1.9V43.6z"/>
		<path fill="#FFFFFF" d="M64.1,47.2c-0.9,0-1.6-0.3-2-1c-0.5-0.7-0.7-1.4-0.7-2.4c0-1,0.3-1.8,0.8-2.4c0.5-0.6,1.2-1,2-1
			c0.8,0,1.5,0.3,2,0.9s0.8,1.4,0.8,2.4c0,0.9-0.2,1.7-0.7,2.4C65.7,46.9,65,47.2,64.1,47.2z M64.1,46.6c0.6,0,1.1-0.3,1.4-0.8
			c0.3-0.5,0.5-1.2,0.5-2c0-0.8-0.2-1.5-0.5-2c-0.3-0.5-0.8-0.7-1.4-0.7c-0.6,0-1,0.3-1.4,0.8c-0.3,0.5-0.5,1.2-0.5,2
			c0,0.8,0.2,1.4,0.5,2C63.1,46.3,63.5,46.6,64.1,46.6z"/>
		<path fill="#FFFFFF" d="M71.4,47.1v-6.5h2.3c1,0,1.7,0.3,2.2,0.9s0.8,1.4,0.8,2.3c0,0.9-0.3,1.7-0.8,2.3c-0.5,0.6-1.2,0.9-2,0.9
			H71.4z M72.3,46.4h1.4c0.7,0,1.3-0.2,1.7-0.7s0.6-1.1,0.6-1.9c0-0.6-0.2-1.2-0.5-1.7c-0.4-0.5-0.9-0.8-1.7-0.8h-1.4V46.4z"/>
		<path fill="#FFFFFF" d="M85.3,40.6H86v4.3c0,0.9-0.2,1.5-0.7,1.8c-0.4,0.4-1,0.6-1.7,0.6c-0.8,0-1.4-0.2-1.7-0.6
			c-0.4-0.4-0.6-1-0.6-1.8v-4.3h0.9v4.3c0,0.5,0.1,0.9,0.2,1.1c0.1,0.2,0.3,0.4,0.6,0.5c0.2,0.1,0.5,0.1,0.8,0.1
			c0.5,0,0.9-0.1,1.2-0.4c0.3-0.3,0.4-0.7,0.4-1.3V40.6z"/>
		<path fill="#FFFFFF" d="M95,44.9l0.8,0.2c-0.4,1.4-1.2,2.2-2.5,2.2c-0.9,0-1.5-0.3-2-1c-0.5-0.7-0.7-1.5-0.7-2.5
			c0-1,0.3-1.8,0.8-2.4c0.5-0.6,1.2-0.9,2.1-0.9c1.3,0,2.1,0.7,2.5,2.1L95,42.7c-0.3-1-0.8-1.6-1.7-1.6c-0.6,0-1.1,0.2-1.4,0.7
			c-0.3,0.5-0.5,1.2-0.5,2c0,0.8,0.2,1.4,0.5,1.9s0.8,0.7,1.3,0.7C94.2,46.5,94.7,46,95,44.9z"/>
		<path fill="#FFFFFF" d="M103.1,47.1h-0.9v-5.8h-1.9v-0.7h4.7v0.7h-1.9V47.1z"/>
		<path fill="#FFFFFF" d="M110.5,47.1h-0.9v-6.5h0.9V47.1z"/>
		<path fill="#FFFFFF" d="M117.8,47.2c-0.9,0-1.6-0.3-2-1c-0.5-0.7-0.7-1.4-0.7-2.4c0-1,0.3-1.8,0.8-2.4c0.5-0.6,1.2-1,2-1
			c0.8,0,1.5,0.3,2,0.9c0.5,0.6,0.8,1.4,0.8,2.4c0,0.9-0.2,1.7-0.7,2.4C119.4,46.9,118.7,47.2,117.8,47.2z M117.8,46.6
			c0.6,0,1.1-0.3,1.4-0.8c0.3-0.5,0.5-1.2,0.5-2c0-0.8-0.2-1.5-0.5-2c-0.3-0.5-0.8-0.7-1.4-0.7c-0.6,0-1,0.3-1.4,0.8
			c-0.3,0.5-0.5,1.2-0.5,2c0,0.8,0.2,1.4,0.5,2C116.8,46.3,117.3,46.6,117.8,46.6z"/>
		<path fill="#FFFFFF" d="M130.2,47.1h-0.8l-3.5-5.7l0,0.4c0,0.2,0,0.3,0,0.4v4.8h-0.7v-6.5h1.1l3.3,5.3l0-0.5c0-0.2,0-0.3,0-0.5
			v-4.4h0.7V47.1z"/>
	</g>
	<g>
		<path fill="#4D4D4F" d="M1.1,54.4h5.1v1.1H2.4v3.1H6v1.1H2.4v4.6H1.1V54.4z"/>
		<path fill="#4D4D4F" d="M13.9,59.3c0,2.5-0.5,5.2-3.2,5.2s-3.2-2.7-3.2-5.2c0-2.5,0.5-5.2,3.2-5.2S13.9,56.8,13.9,59.3z M8.7,59.3
			c0,2.3,0.2,4.2,1.9,4.2s1.9-1.9,1.9-4.2c0-2.3-0.2-4.2-1.9-4.2S8.7,57,8.7,59.3z"/>
		<path fill="#4D4D4F" d="M21.7,60.9c-0.1,1.9-0.8,3.6-3,3.6c-2.8,0-3.2-2.7-3.2-5.2c0-2.5,0.5-5.2,3.2-5.2c2,0,2.9,1.1,2.9,3.1
			h-1.3c0-1.1-0.4-2.1-1.7-2.1c-1.7,0-1.9,1.9-1.9,4.2c0,2.3,0.2,4.2,1.9,4.2c1.5,0,1.7-1.4,1.7-2.6H21.7z"/>
		<path fill="#4D4D4F" d="M23,54.4h1.2v7c0,1.5,0.5,2.1,1.7,2.1c1.3,0,1.7-0.8,1.7-2.1v-7h1.2v7c0,1.9-1,3.1-2.9,3.1
			c-2,0-2.9-1.1-2.9-3.1V54.4z"/>
		<path fill="#4D4D4F" d="M34.8,56.9c0-1-0.4-1.8-1.5-1.8c-1,0-1.6,0.6-1.6,1.6c0,2.8,4.7,1.1,4.7,4.8c0,2.3-1.7,2.9-3.1,2.9
			c-2.3,0-3-1.2-3-3.3h1.2c0,1.1,0.1,2.3,1.9,2.3c1,0,1.7-0.7,1.7-1.8c0-2.8-4.7-1.2-4.7-4.8c0-0.9,0.4-2.7,2.9-2.7
			c1.9,0,2.7,0.9,2.8,2.8H34.8z"/>
		<path fill="#4D4D4F" d="M46.5,61.5c0.2-0.5,0.3-1,0.4-1.9h1.1c0,0.7-0.4,2.4-0.8,2.9l1.3,1.8h-1.3l-0.7-0.9
			c-0.8,0.7-1.4,1.1-2.4,1.1c-2.4,0-2.9-1.9-2.9-2.8c0-1,0.5-1.9,1.3-2.6l0.7-0.5l-0.3-0.5c-0.4-0.6-0.7-1.1-0.7-1.8
			c0-1.2,0.9-1.9,2.1-1.9c1.3,0,2.1,0.5,2.1,1.9c0,1-0.7,1.6-1.4,2.2l-0.4,0.3L46.5,61.5z M43.7,59.4c-0.8,0.5-1.4,1.2-1.4,2.3
			c0,1.2,0.8,1.9,1.8,1.9c0.8,0,1.3-0.4,1.8-1L43.7,59.4z M44.3,57.7c0.4-0.4,0.9-0.8,0.9-1.5c0-0.6-0.4-1-1-1c-0.6,0-1,0.4-1,1
			c0,0.4,0.3,0.9,0.6,1.4L44,58L44.3,57.7z"/>
		<path fill="#4D4D4F" d="M59.2,60.9c-0.1,1.9-0.8,3.6-3,3.6c-2.8,0-3.2-2.7-3.2-5.2c0-2.5,0.5-5.2,3.2-5.2c2,0,2.9,1.1,2.9,3.1
			h-1.3c0-1.1-0.4-2.1-1.7-2.1c-1.7,0-1.9,1.9-1.9,4.2c0,2.3,0.2,4.2,1.9,4.2c1.5,0,1.7-1.4,1.7-2.6H59.2z"/>
		<path fill="#4D4D4F" d="M66.9,59.3c0,2.5-0.5,5.2-3.2,5.2s-3.2-2.7-3.2-5.2c0-2.5,0.5-5.2,3.2-5.2S66.9,56.8,66.9,59.3z
			 M61.8,59.3c0,2.3,0.2,4.2,1.9,4.2s1.9-1.9,1.9-4.2c0-2.3-0.2-4.2-1.9-4.2S61.8,57,61.8,59.3z"/>
		<path fill="#4D4D4F" d="M68.7,54.4h2.1l2,7.9h0l2-7.9h2.1v9.9h-1.2v-8.7h0l-2.2,8.7h-1.2l-2.2-8.7h0v8.7h-1.2V54.4z"/>
		<path fill="#4D4D4F" d="M78.8,54.4h2.1l2,7.9h0l2-7.9h2.1v9.9h-1.2v-8.7h0l-2.2,8.7h-1.2L80,55.6h0v8.7h-1.2V54.4z"/>
		<path fill="#4D4D4F" d="M88.7,54.4h1.2v7c0,1.5,0.5,2.1,1.7,2.1c1.3,0,1.7-0.8,1.7-2.1v-7h1.2v7c0,1.9-1,3.1-2.9,3.1
			c-2,0-2.9-1.1-2.9-3.1V54.4z"/>
		<path fill="#4D4D4F" d="M96.3,54.4h1.6l3.3,8.3h0v-8.3h1.2v9.9h-1.7l-3.2-8h0v8h-1.2V54.4z"/>
		<path fill="#4D4D4F" d="M104.3,54.4h1.2v9.9h-1.2V54.4z"/>
		<path fill="#4D4D4F" d="M113.5,60.9c-0.1,1.9-0.8,3.6-3,3.6c-2.8,0-3.2-2.7-3.2-5.2c0-2.5,0.5-5.2,3.2-5.2c2,0,2.9,1.1,2.9,3.1
			h-1.3c0-1.1-0.4-2.1-1.7-2.1c-1.7,0-1.9,1.9-1.9,4.2c0,2.3,0.2,4.2,1.9,4.2c1.5,0,1.7-1.4,1.7-2.6H113.5z"/>
		<path fill="#4D4D4F" d="M116.9,54.4h1.6l2.7,9.9h-1.3l-0.7-2.7h-3.2l-0.7,2.7H114L116.9,54.4z M116.3,60.6h2.7l-1.3-4.8h0
			L116.3,60.6z"/>
		<path fill="#4D4D4F" d="M124.4,64.3h-1.2v-8.8h-2.5v-1.1h6.2v1.1h-2.5V64.3z"/>
		<path fill="#4D4D4F" d="M128.2,54.4h5.1v1.1h-3.9v3.1h3.7v1.1h-3.7v3.6h4.1v1.1h-5.3V54.4z"/>
	</g>
</g>
<g id="Layer_2">
</g>
</svg>
